#!OML:ASF H:\ManfredETheater\Project 1\Capture day 1\Session 1\subject.ASF
:FULLY-SPECIFIED
:DEGREES
129
root -4.84809 13.0027 -18.3093 -12.0804 51.0791 -25.3513
lowerback 47.3548 -3.25501 3.42775
upperback 10.4674 -0.888664 3.62939
thorax -9.71365 -0.198835 2.55071
lowerneck -7.64571 -11.6129 -11.2088
upperneck -5.64455 -14.7537 20.5111
head 2.10564 -7.17871 7.18311
rclavicle 1.59028e-015 -2.38542e-015
rhumerus -42.5881 -7.26253 -74.0572
rradius 110.085
rwrist 1.02703
rhand -28.8783 -15.52
rfingers 7.12502
rthumb -2.23418 -45.4881
lclavicle 1.59028e-015 -2.38542e-015
lhumerus -34.3897 -19.6105 89.9767
lradius 106.905
lwrist -19.4358
lhand -31.7654 -2.15033
lfingers 7.12502
lthumb -5.02224 27.7702
rfemur -61.1768 -19.4449 6.70266
rtibia 61.4539
rfoot -9.22065 -6.6826
rtoes -33.2109
lfemur -76.541 10.484 -19.1052
ltibia 101.423
lfoot -26.6084 -16.3315
ltoes 34.1666
130
root -4.87962 12.9276 -18.1615 -11.8936 51.8016 -25.3958
lowerback 48.6606 -3.40555 3.52137
upperback 9.62169 -0.89411 3.67123
thorax -9.57655 -0.216129 2.6605
lowerneck -7.34072 -11.7064 -11.3183
upperneck -6.26544 -14.8237 20.8262
head 1.9278 -7.25311 7.32245
rclavicle -3.49861e-014 -1.19271e-014
rhumerus -42.5924 -7.87489 -73.312
rradius 110.378
rwrist 0.33601
rhand -29.4849 -16.015
rfingers 7.12502
rthumb -2.81999 -45.9761
lclavicle -3.49861e-014 -1.19271e-014
lhumerus -34.2977 -18.6893 89.1492
lradius 108.014
lwrist -18.9799
lhand -32.2726 -3.33856
lfingers 7.12502
lthumb -5.51194 26.5698
rfemur -61.2133 -19.7738 6.0268
rtibia 60.8051
rfoot -9.25964 -6.8753
rtoes -33.27
lfemur -77.3462 10.7998 -18.9953
ltibia 102.378
lfoot -27.0829 -17.3562
ltoes 33.8866
131
root -4.91125 12.8506 -18.0129 -11.6906 52.5087 -25.3876
lowerback 49.0635 -3.45972 3.47846
upperback 9.74783 -0.908725 3.77847
thorax -9.49584 -0.216704 2.80955
lowerneck -7.02614 -11.8022 -11.4197
upperneck -6.87892 -14.898 21.1337
head 1.75073 -7.33112 7.45927
rclavicle 5.56597e-014 -1.27222e-014
rhumerus -42.5908 -8.48627 -72.5237
rradius 110.602
rwrist -0.268728
rhand -30.0565 -16.5405
rfingers 7.12502
rthumb -3.37203 -46.4935
lclavicle 5.56597e-014 -1.27222e-014
lhumerus -34.1295 -17.6302 88.1985
lradius 109.106
lwrist -18.5701
lhand -32.8634 -4.32106
lfingers 7.12502
lthumb -6.08238 25.5716
rfemur -61.3407 -20.1945 5.49756
rtibia 60.4388
rfoot -9.31642 -7.12073
rtoes -33.2518
lfemur -78.1287 11.1477 -18.8941
ltibia 103.338
lfoot -27.5344 -18.4204
ltoes 33.6526
132
root -4.94308 12.7712 -17.8631 -11.4813 53.195 -25.3298
lowerback 49.4769 -3.49345 3.42976
upperback 9.87272 -0.902999 3.86914
thorax -9.41693 -0.207563 2.93477
lowerneck -6.7056 -11.9083 -11.4933
upperneck -7.48418 -14.9889 21.4304
head 1.57523 -7.41903 7.58799
rclavicle -4.29375e-014 8.34896e-014
rhumerus -42.5909 -9.12129 -71.6968
rradius 110.768
rwrist -0.888652
rhand -30.5551 -17.0676
rfingers 7.12502
rthumb -3.85353 -47.0125
lclavicle -4.29375e-014 8.34896e-014
lhumerus -33.8661 -16.4694 87.1182
lradius 110.153
lwrist -18.1647
lhand -33.5477 -5.02135
lfingers 7.12502
lthumb -6.74298 24.8513
rfemur -61.5577 -20.6989 5.11857
rtibia 60.3529
rfoot -9.38189 -7.36895
rtoes -33.1681
lfemur -78.8828 11.5353 -18.8024
ltibia 104.305
lfoot -27.9646 -19.5021
ltoes 33.42
133
root -4.975 12.689 -17.7123 -11.2632 53.8495 -25.2231
lowerback 49.892 -3.50926 3.3665
upperback 9.99522 -0.884995 3.9477
thorax -9.33969 -0.192673 3.04831
lowerneck -6.37712 -12.0157 -11.5787
upperneck -8.06796 -15.0834 21.7283
head 1.40708 -7.50909 7.71955
rclavicle 2.22639e-014 -9.54166e-014
rhumerus -42.5871 -9.73446 -70.8364
rradius 110.866
rwrist -1.55136
rhand -31.0106 -17.5515
rfingers 7.12502
rthumb -4.29339 -47.488
lclavicle 2.22639e-014 -9.54166e-014
lhumerus -33.5133 -15.1884 85.9219
lradius 111.138
lwrist -17.7092
lhand -34.3477 -5.3603
lfingers 7.12502
lthumb -7.51523 24.4862
rfemur -61.8698 -21.2688 4.89085
rtibia 60.536
rfoot -9.44969 -7.58779
rtoes -33.0233
lfemur -79.6156 11.9758 -18.7216
ltibia 105.281
lfoot -28.371 -20.5889
ltoes 33.1667
134
root -5.00717 12.6038 -17.5608 -11.0475 54.4831 -25.0693
lowerback 50.3228 -3.51526 3.30172
upperback 10.1115 -0.857285 4.00939
thorax -9.27005 -0.172853 3.14037
lowerneck -6.04064 -12.1301 -11.6663
upperneck -8.63016 -15.1902 22.0281
head 1.24701 -7.60589 7.85169
rclavicle 1.59028e-014 3.10104e-014
rhumerus -42.5855 -10.3339 -69.9537
rradius 110.897
rwrist -2.28348
rhand -31.4015 -17.9606
rfingers 7.12502
rthumb -4.67086 -47.8891
lclavicle 1.59028e-014 3.10104e-014
lhumerus -33.0659 -13.8208 84.6161
lradius 112.041
lwrist -17.1155
lhand -35.1747 -5.31687
lfingers 7.12502
lthumb -8.31338 24.4995
rfemur -62.2542 -21.8992 4.79808
rtibia 60.9661
rfoot -9.51826 -7.76124
rtoes -32.8563
lfemur -80.3202 12.453 -18.6508
ltibia 106.266
lfoot -28.7402 -21.6809
ltoes 32.9226
135
root -5.03999 12.5164 -17.4082 -10.8495 55.096 -24.8805
lowerback 50.7709 -3.50819 3.2268
upperback 10.2238 -0.818991 4.06268
thorax -9.20554 -0.147953 3.22371
lowerneck -5.69741 -12.2491 -11.7658
upperneck -9.16741 -15.3062 22.3327
head 1.09679 -7.70733 7.98691
rclavicle 2.22639e-014 -1.35174e-014
rhumerus -42.5794 -10.9097 -69.0477
rradius 110.873
rwrist -3.14463
rhand -31.7231 -18.3076
rfingers 7.12502
rthumb -4.98139 -48.229
lclavicle 2.22639e-014 -1.35174e-014
lhumerus -32.5169 -12.3602 83.2091
lradius 112.833
lwrist -16.299
lhand -35.9058 -4.9836
lfingers 7.12502
lthumb -9.01887 24.8036
rfemur -62.6771 -22.5529 4.80339
rtibia 61.6206
rfoot -9.55702 -7.84675
rtoes -32.9327
lfemur -80.985 12.9707 -18.58
ltibia 107.256
lfoot -29.071 -22.7753
ltoes 32.6807
136
root -5.07339 12.4256 -17.2567 -10.6465 55.6938 -24.6521
lowerback 51.2144 -3.50679 3.16868
upperback 10.3299 -0.78212 4.09733
thorax -9.14481 -0.122946 3.27939
lowerneck -5.34804 -12.3717 -11.8739
upperneck -9.68194 -15.43 22.6396
head 0.955163 -7.81284 8.12405
rclavicle -4.6118e-014 -3.81667e-014
rhumerus -42.5703 -11.4579 -68.1306
rradius 110.786
rwrist -4.0863
rhand -31.9701 -18.5712
rfingers 7.12502
rthumb -5.21988 -48.4869
lclavicle -4.6118e-014 -3.81667e-014
lhumerus -31.8695 -10.8242 81.7157
lradius 113.489
lwrist -15.2123
lhand -36.4178 -4.41788
lfingers 7.12502
lthumb -9.51293 25.3474
rfemur -63.1466 -23.2038 4.83273
rtibia 62.4759
rfoot -9.49259 -7.67869
rtoes -33.1357
lfemur -81.645 13.5011 -18.5243
ltibia 108.252
lfoot -29.3493 -23.8459
ltoes 32.45
137
root -5.10771 12.3314 -17.1055 -10.4215 56.2801 -24.3741
lowerback 51.6459 -3.5072 3.12088
upperback 10.4282 -0.746066 4.1129
thorax -9.0888 -0.0974782 3.3095
lowerneck -4.99972 -12.5013 -11.9869
upperneck -10.1669 -15.5669 22.9487
head 0.82587 -7.92443 8.26112
rclavicle 3.02153e-014 3.97569e-015
rhumerus -42.5618 -11.9772 -67.2079
rradius 110.638
rwrist -5.07534
rhand -32.1386 -18.7755
rfingers 7.12502
rthumb -5.38251 -48.6872
lclavicle 3.02153e-014 3.97569e-015
lhumerus -31.1289 -9.23159 80.1455
lradius 113.989
lwrist -13.8371
lhand -36.6834 -3.70416
lfingers 7.12502
lthumb -9.76916 26.0492
rfemur -63.6574 -23.8305 4.83438
rtibia 63.5246
rfoot -9.34249 -7.21654
rtoes -33.488
lfemur -82.3055 14.035 -18.4815
ltibia 109.252
lfoot -29.5742 -24.8941
ltoes 32.2365
138
root -5.14319 12.2339 -16.9548 -10.1588 56.8565 -24.0423
lowerback 52.043 -3.51472 3.06226
upperback 10.5269 -0.727545 4.12293
thorax -9.02562 -0.0797164 3.34524
lowerneck -4.66746 -12.6258 -12.153
upperneck -10.6139 -15.6991 23.2623
head 0.71518 -8.03028 8.40675
rclavicle 2.46493e-014 -4.69132e-014
rhumerus -42.5211 -12.4103 -66.2966
rradius 110.411
rwrist -6.01861
rhand -32.2533 -18.9241
rfingers 7.12502
rthumb -5.49329 -48.8329
lclavicle 2.46493e-014 -4.69132e-014
lhumerus -30.3167 -7.54644 78.5314
lradius 114.312
lwrist -12.2007
lhand -36.669 -2.96551
lfingers 7.12502
lthumb -9.75531 26.7885
rfemur -64.2274 -24.4189 4.76671
rtibia 64.7612
rfoot -9.11582 -6.50494
rtoes -34.0628
lfemur -82.9798 14.566 -18.4508
ltibia 110.256
lfoot -29.7418 -25.9206
ltoes 32.0532
139
root -5.17962 12.1333 -16.8048 -9.85365 57.4339 -23.6484
lowerback 52.4119 -3.53529 2.99759
upperback 10.6226 -0.730764 4.1245
thorax -8.95976 -0.071295 3.38326
lowerneck -4.34524 -12.743 -12.3494
upperneck -11.0341 -15.8238 23.5622
head 0.614583 -8.12985 8.55296
rclavicle -4.6118e-014 -2.90226e-014
rhumerus -42.4507 -12.7525 -65.4162
rradius 110.09
rwrist -6.80903
rhand -32.341 -19.0114
rfingers 7.12502
rthumb -5.57797 -48.918
lclavicle -4.6118e-014 -2.90226e-014
lhumerus -29.4511 -5.80647 76.8947
lradius 114.447
lwrist -10.345
lhand -36.5282 -2.16247
lfingers 7.12502
lthumb -9.61946 27.5979
rfemur -64.8577 -24.9719 4.59077
rtibia 66.1817
rfoot -8.86862 -5.57663
rtoes -34.8624
lfemur -83.6607 15.0739 -18.4379
ltibia 111.259
lfoot -29.8612 -26.9064
ltoes 31.8751
